<?xml version="1.0" encoding="UTF-8" standalone="no"?><!DOCTYPE svg PUBLIC "-//W3C//DTD SVG 1.1//EN" "http://www.w3.org/Graphics/SVG/1.1/DTD/svg11.dtd"><svg width="100%" height="100%" viewBox="0 0 103 156" version="1.1" xmlns="http://www.w3.org/2000/svg" xmlns:xlink="http://www.w3.org/1999/xlink" xml:space="preserve" xmlns:serif="http://www.serif.com/" style="fill-rule:evenodd;clip-rule:evenodd;stroke-linejoin:round;stroke-miterlimit:2;"><rect id="Artboard1" x="-107.37" y="-247.851" width="612" height="792" style="fill:none;"/><g id="Artboard11" serif:id="Artboard1"><path d="M97.047,0.149c0.004,0.009 0.138,0.143 0.156,0.389c0.003,0.039 0.001,0.037 0.001,0.491c0.002,0.887 0.011,3.312 0.012,3.6c0.004,0.922 0.515,0.758 1.573,0.753c0.962,-0.004 0.957,-0.004 1.92,-0.011c0.802,-0.006 0.811,-0.123 1.589,0.089c0.022,0.048 0.073,0.078 0.094,0.125c0.138,0.3 0.107,3.854 0.103,5.763c-0.018,9.075 0.003,9.069 0.024,14.16c0.013,2.269 0.039,2.682 -0.153,2.852c-0.215,0.19 -0.248,0.154 -3.579,0.1c-1.392,-0.022 -1.837,-0.186 -1.827,0.885c0.059,6.347 0.078,7.288 0.09,7.922c0.019,0.948 -0.446,0.699 -2.342,0.704c-2.853,0.008 -3.196,-0.097 -3.295,0.277c-0.024,0.09 0.054,7.268 0.06,7.9c0.018,1.646 0.182,2.126 -0.605,2.132c-3.166,0.025 -4.994,-0.127 -5.216,0.091c-0.144,0.141 -0.126,0.825 -0.125,0.898c0.029,1.156 0.025,1.83 0.027,5.278c0.002,3.68 0.084,3.731 -0.131,3.923c-0.236,0.21 -1.616,0.133 -4.875,0.142c-0.833,0.002 -0.607,0.528 -0.591,1.697c0.051,3.819 0.179,4.288 -0.348,4.404c-0.087,0.019 -4.672,-0.059 -4.799,-0.023c-0.41,0.115 -0.229,0.598 -0.211,3.537c0.026,4.427 -0.087,4.418 -0.084,4.802c0.004,0.578 0.709,0.48 0.994,0.476c4.201,-0.064 4.322,-0.045 4.441,0.29c0.058,0.164 0.03,5.286 0.07,5.482c0.108,0.523 0.503,0.401 2.689,0.4c2.795,-0.002 3.145,-0.14 3.144,0.55c-0.024,17.24 -0.031,17.238 -0.017,19.68c0.008,1.441 -0.235,1.921 0.712,1.917c4.199,-0.015 4.196,-0.026 4.561,-0.02c0.782,0.013 0.601,0.639 0.594,1.224c-0.022,1.689 0,1.689 -0.044,21.119c-0.007,3.05 0.066,3.116 -0.149,3.265c-0.216,0.149 -0.244,0.07 -3.281,0.062c-2.112,-0.006 -2.266,-0.125 -2.395,0.275c-0.08,0.249 -0.043,5.894 -0.014,6.001c0.032,0.118 0.067,0.251 1.048,1.107c1.924,1.68 1.887,1.713 3.827,3.373c1.231,1.054 1.365,1.064 1.371,1.997c0.037,6.6 -0.013,6.594 0.001,13.2c0.004,2.077 0.234,2.563 -0.718,2.511c-1.716,-0.094 -15.896,0.011 -17.279,0.021c-5.936,0.044 -14.131,-0.043 -15.36,-0.056c-8.206,-0.087 -20.852,0.074 -22.319,0.045c-4.261,-0.084 -16.56,-0.065 -18,-0.063c-2.603,0.004 -3.04,0.151 -3.174,-0.28c-0.082,-0.262 0.069,-6.393 -0.033,-15.618c-0.01,-0.888 0.387,-0.722 2.008,-0.725c2.976,-0.007 3.222,0.115 3.344,-0.243c0.126,-0.37 -0.113,-6.811 0.028,-7.188c0.114,-0.304 0.228,-0.248 3.827,-0.297c1.092,-0.015 1.534,0.179 1.523,-0.908c-0.042,-4.303 -0.194,-4.808 0.169,-5.019c0.3,-0.176 4.194,-0.057 4.785,-0.105c0.701,-0.057 0.566,-0.534 0.573,-2.075c0.011,-2.162 0.169,-2.581 -0.568,-2.571c-6.724,0.097 -6.719,-0.065 -13.443,0.102c-1.028,0.026 -0.942,-0.342 -0.966,-1.372c-0.037,-1.536 -0.003,-1.529 -0.015,-2.16c-0.015,-0.795 -0.667,-0.617 -1.418,-0.618c-4.65,-0.004 -4.705,-0.014 -4.908,-0.257c-0.293,-0.349 -0.097,-3.913 -0.181,-4.396c-0.092,-0.529 -0.584,-0.433 -4.51,-0.385c-0.935,0.011 -0.794,-0.323 -0.856,-0.829c-0.092,-3.989 0.035,-3.994 -0.046,-4.331c-0.112,-0.465 -0.457,-0.394 -2.937,-0.363c-1.084,-0.008 -1.61,0.121 -1.553,-0.826c0.049,-0.815 0.015,-8.181 0.03,-11.996c0.018,-4.814 -0.191,-4.85 0.044,-5.307c0.022,-0.043 0.072,-0.068 0.094,-0.112c1.045,-0.189 1.047,-0.066 2.103,-0.05c0.963,0.014 0.956,0.007 1.919,0.026c0.902,0.018 0.709,-0.371 0.711,-1.276c0.014,-6.668 -0.097,-6.712 0.075,-6.897c0.134,-0.145 0.602,-0.143 0.656,-0.143c3.723,0.012 3.81,0.19 4.099,-0.147c0.166,-0.194 0.01,-3.715 -0.01,-4.334c-0.009,-0.296 0.042,-0.286 0.065,-0.441c0.245,-0.229 0.263,-0.261 1.606,-0.265c0.23,-0.001 2.781,-0.007 2.88,-0.011c0.819,-0.028 0.524,-0.581 0.538,-4.083c0.004,-0.907 0.409,-0.727 2.102,-0.74c3.181,-0.026 3.224,0.024 3.411,-0.172c0.371,-0.39 -0.045,-3.573 0.193,-3.886c0.182,-0.24 0.24,-0.263 3.836,-0.189c2.184,0.045 2.566,0.219 2.543,-0.532c-0.008,-0.249 -0.086,-2.763 -0.063,-3.119c0.049,-0.76 0.411,-0.564 3.281,-0.564c0.081,-0.001 0.844,-0.005 1.005,-0.075c0.321,-0.138 0.226,-0.266 0.23,-5.603c0.007,-7.747 -0.087,-20.19 -0.049,-20.881c0.047,-0.838 0.708,-0.616 2.415,-0.597c2.601,0.029 3,0.158 2.954,-0.61c-0.171,-2.916 0.088,-3.113 -0.038,-11.273c-0.012,-0.796 0.478,-0.652 1.401,-0.649c3.644,0.01 3.78,0.054 3.887,-0.292c0.094,-0.303 0.009,-7.525 0.001,-8.179c-0.008,-0.663 -0.079,-0.974 0.912,-0.978c3.639,-0.015 4.433,0.107 4.581,-0.206c0.064,-0.135 0.068,-0.138 0.043,-4.335c-0.01,-1.63 -0.17,-2.067 0.896,-2.079c3.023,-0.034 3.895,0.126 4.046,-0.333c0.101,-0.309 0.087,-0.314 0.064,-4.067c-0.001,-0.097 -0.163,-0.916 0.445,-0.998c0.016,-0.002 6.353,0.009 7.205,0.012c3.642,0.015 3.787,-0.085 3.96,0.298c0.018,0.039 -0.033,3.937 -0.02,4.288c0.03,0.792 0.585,0.703 1.339,0.704c2.451,0.003 3.085,-0.272 3.016,0.732c-0.111,1.603 -0.033,10.851 -0.049,14.166c-0.005,1.036 -0.494,0.82 -2.247,0.812c-1.434,-0.007 -2.01,-0.174 -1.929,0.628c0.048,0.478 0.126,1.237 0.064,6c-0.031,2.372 0.174,2.802 -0.776,2.832c-2.301,0.075 -3.62,-0.198 -3.762,0.311c-0.038,0.136 0.103,9.061 -0.098,9.565c-0.282,0.707 -3.735,0.041 -4.118,0.433c-0.193,0.198 -0.009,0.251 -0.036,4.616c-0.031,5.022 0.027,5.322 -0.155,5.512c-0.504,0.524 -3.838,-0.154 -4.083,0.483c-0.083,0.215 -0.049,0.217 -0.024,2.887c0.036,3.989 -0.255,4.218 0.312,4.444c0.091,0.036 0.627,0.014 0.682,0.012c3.65,-0.149 3.795,0.225 4.038,-0.166c0.159,-0.256 -0.038,-6.358 0.022,-6.934c0.058,-0.556 0.762,-0.441 2.185,-0.422c0.685,0.008 1.38,0.124 1.574,-0.327c0.047,-0.108 0.011,-0.817 0.026,-2.128c0.064,-5.632 -0.108,-5.701 0.137,-5.924c0.327,-0.297 3.568,-0.014 4.012,-0.118c0.568,-0.132 0.267,-0.416 0.264,-5.957c-0.002,-5.015 0.01,-5.086 0.252,-5.236c0.336,-0.207 4.151,-0.01 4.59,-0.186c0.399,-0.16 0.18,-0.316 0.163,-2.498c-0.004,-0.557 -0.042,-5.614 0.03,-6.959c0.034,-0.634 0.872,-0.492 1.432,-0.481c3.375,0.067 3.534,0.155 3.642,-0.225c0.026,-0.091 -0.046,-8.008 -0.011,-8.652c0.039,-0.706 0.703,-0.503 2.369,-0.497c2.889,0.012 2.933,-0.075 3.035,-0.274c0.176,-0.341 -0.008,-5.38 0.036,-5.718c0.082,-0.625 0.362,-0.484 3.408,-0.517c2.104,-0.023 2.501,0.14 2.477,-0.681c-0.01,-0.345 -0.09,-2.997 -0.037,-4.314c0.026,-0.637 0.562,-0.548 0.921,-0.544c9.058,0.105 9.054,0.012 9.841,0.036c0.289,0.009 0.369,0.095 0.415,0.107Z" style="fill:#0a0b0a;"/><path d="M42.632,116.784c-0.698,0.006 -1.32,0.153 -1.379,-0.558c-0.07,-0.85 -0.002,-3.087 0.007,-3.355c0.027,-0.877 0.873,-0.532 2.806,-0.569c0.88,-0.017 0.681,-0.493 0.671,-2.313c-0.008,-1.271 -0.18,-1.848 0.536,-1.872c1.652,-0.057 2.445,0.203 2.749,-0.219c0.031,-0.043 0.09,-0.041 0.142,-3.188c0.006,-0.347 -0.186,-1.15 0.467,-1.197c0.682,-0.048 3.153,0.054 3.407,-0.197c0.16,-0.159 0.156,-0.195 0.167,-4.126c0.002,-0.727 0.265,-0.633 0.985,-0.683c2.701,0.021 2.939,0.062 2.996,-0.497c0.021,-0.203 -0.011,-4.067 -0.006,-4.086c0.15,-0.601 0.564,-0.382 3.252,-0.421c0.791,-0.011 0.918,-0.116 0.893,-0.791c-0.001,-0.019 -0.037,-3.564 -0.033,-3.611c0.05,-0.637 0.655,-0.453 2.978,-0.493c0.064,-0.001 0.668,-0.012 0.791,-0.105c0.381,-0.288 0.178,-0.64 0.247,-3.951c0.02,-0.975 0.522,-0.709 2.082,-0.738c0.554,-0.011 1.338,0.038 1.474,-0.194c0.176,-0.3 0.107,-0.32 0.114,-3.389c0.002,-0.763 -0.187,-1.072 0.573,-1.117c0.288,-0.017 0.287,0.054 3.601,-0.016c0.712,-0.015 0.957,-0.059 0.947,0.653c-0.012,0.843 -0.025,0.835 -0.036,1.68c-0.023,1.92 0.216,2.597 -0.432,2.646c-0.134,0.01 -0.133,-0.015 -1.681,-0.012c-0.445,0.001 -0.451,0.084 -0.632,0.276c-0.154,3.264 0.153,5.677 -0.124,5.927c-0.367,0.331 -2.18,-0.243 -2.343,0.527c-0.074,0.352 0.015,4.632 0.024,5.035c0.029,1.391 -1.971,0.104 -2.115,1.208c-0.074,0.565 -0.037,3.527 -0.033,3.833c0.016,1.271 0.217,1.8 -0.538,1.837c-0.558,0.028 -1.616,-0.256 -1.631,0.565c-0.038,2.047 -0.079,2.041 -0.21,4.086c-0.022,0.336 0.018,0.328 0.024,0.435c0.318,0.303 0.375,0.223 2.059,0.208c1.152,-0.01 12.438,-0.108 14.394,-0.042c0.079,0.011 0.161,-0.025 0.24,-0.014c0.653,0.087 0.467,0.421 0.476,2.765c0.007,1.88 0.173,2.301 -0.711,2.312c-3.122,0.038 -3.877,-0.34 -3.924,0.565c-0.051,0.982 0.059,3.794 -0.168,4.073c-0.373,0.459 -2.731,0.001 -4.257,0.342c-0.084,0.147 -0.223,0.096 -0.234,0.63c-0.072,3.75 0.086,3.927 -0.31,4.037c-0.442,0.122 -3.676,-0.183 -4.007,0.117c-0.18,0.163 -0.1,0.202 -0.138,0.886c-0.01,3.57 0.078,3.648 -0.174,3.819c-0.071,0.048 -0.2,0.071 -0.218,0.074c-0.124,0.022 -0.123,-0.013 -0.25,0.009c-3.506,-0.015 -3.514,-0.047 -3.804,0.044c-0.327,0.102 -0.24,0.39 -0.215,3.012c0.009,0.942 0.167,1.502 -0.535,1.531c-1.68,0.07 -1.675,-0.055 -3.361,0.009c-0.771,0.03 -0.646,0.377 -0.646,3.021c0,1.577 0.146,1.907 -0.558,1.934c-0.955,0.036 -2.338,-0.057 -3.584,0.048c-0.419,0.334 -0.359,0.416 -0.313,2.34c0.055,2.307 0.136,2.567 -0.428,2.6c-1.23,0.07 -3.687,-0.22 -3.997,0.116c-0.36,0.392 0.151,4.351 -0.124,4.685c-0.174,0.211 -0.236,0.11 -3.795,0.128c-0.078,0 -0.873,0.004 -0.968,-0.081c-0.215,-0.194 -0.153,-0.51 -0.185,-2.649c-0.029,-1.966 -0.068,-2.177 0.417,-2.25c0.367,-0.055 2.753,0.18 3.077,-0.197c0.318,-0.369 -0.087,-4.77 0.166,-5.16c0.347,-0.535 2.583,0.233 2.806,-0.541c0.1,-0.346 -0.049,-5.149 0.11,-5.352c0.255,-0.324 0.344,-0.158 2.477,-0.261c0.071,-0.072 0.187,-0.088 0.257,-0.16c0.381,-0.388 0.04,-5.269 0.37,-5.617c0.464,-0.488 1.955,0.244 2.097,-0.607c0.051,-0.307 0.603,-1.842 1.144,-3.426c0.104,-0.305 0.208,-0.612 0.307,-0.912c0.491,-1.481 0.883,-2.802 0.739,-2.958c-0.203,-0.22 -0.266,-0.08 -4.176,-0.134c-4.314,-0.059 -9.934,0.037 -10.798,0.052Z" style="fill:#f3bd18;"/><path d="M19.592,82.293c0.499,0.003 5.369,0.028 6.235,0.019c0.07,-0.001 0.751,-0.008 0.866,0.156c0.127,0.181 0.007,3.205 0.01,6.401c0.001,0.76 0.208,1.264 -0.402,1.347c-0.017,0.002 -5.489,-0.017 -6.714,0.014c-0.623,0.016 -0.781,-0.022 -0.776,-0.641c0.022,-2.764 0.049,-2.758 0.067,-5.52c0.004,-0.604 -0.005,-0.598 -0.021,-1.199c-0.019,-0.703 0.456,-0.553 0.735,-0.576Z" style="fill:#f3bd18;"/></g></svg>